<svg xmlns="http://www.w3.org/2000/svg" viewBox="0 0 128 128">
  <defs>
    <linearGradient id="bg" x1="0%" y1="0%" x2="100%" y2="100%">
      <stop offset="0%" style="stop-color:#667eea"/>
      <stop offset="100%" style="stop-color:#764ba2"/>
    </linearGradient>
  </defs>
  
  <!-- Background circle -->
  <circle cx="64" cy="64" r="60" fill="url(#bg)"/>
  
  <!-- Brain icon (simplified) -->
  <g fill="white" transform="translate(28, 28) scale(0.56)">
    <!-- Left hemisphere -->
    <path d="M64 16c-26.5 0-48 21.5-48 48 0 16.5 8.4 31.1 21.1 39.7 1.8 1.2 4.2.7 5.4-1.1 1.2-1.8.7-4.2-1.1-5.4C30.8 89.7 24 77.5 24 64c0-22.1 17.9-40 40-40V16z"/>
    <!-- Right hemisphere -->
    <path d="M64 16v8c22.1 0 40 17.9 40 40 0 13.5-6.8 25.7-17.4 33.2-1.8 1.2-2.3 3.6-1.1 5.4 1.2 1.8 3.6 2.3 5.4 1.1C103.6 95.1 112 80.5 112 64c0-26.5-21.5-48-48-48z"/>
    <!-- Center detail -->
    <ellipse cx="64" cy="56" rx="16" ry="20" fill="none" stroke="white" stroke-width="4"/>
    <!-- Connection lines -->
    <path d="M48 48 L32 40" stroke="white" stroke-width="3" stroke-linecap="round"/>
    <path d="M80 48 L96 40" stroke="white" stroke-width="3" stroke-linecap="round"/>
    <path d="M48 72 L32 80" stroke="white" stroke-width="3" stroke-linecap="round"/>
    <path d="M80 72 L96 80" stroke="white" stroke-width="3" stroke-linecap="round"/>
  </g>
</svg>
